{
  "asset": {
    "generator": "gltfeditor.com",
    "version": "2.0"
  },
  "buffers": [
    {
      "uri": "data:application/octet-stream;base64,",
      "byteLength": 10560
    },
    {
      "uri": "data:application/octet-stream;base64,",
      "byteLength": 1320
    },
    {
      "uri": "data:application/octet-stream;base64,",
      "byteLength": 576
    },
    {
      "uri": "data:application/octet-stream;base64,",
      "byteLength": 72
    },
    {
      "uri": "data:application/octet-stream;base64,",
      "byteLength": 14592
    },
    {
      "uri": "data:application/octet-stream;base64,",
      "byteLength": 1824
    }
  ],
  "bufferViews": [
    {
      "buffer": 0,
      "byteOffset": 0,
      "byteLength": 10560,
      "target": 34962,
      "byteStride": 32
    },
    {
      "buffer": 1,
      "byteOffset": 0,
      "byteLength": 1320,
      "target": 34963
    },
    {
      "buffer": 2,
      "byteOffset": 0,
      "byteLength": 576,
      "target": 34962,
      "byteStride": 32
    },
    {
      "buffer": 3,
      "byteOffset": 0,
      "byteLength": 72,
      "target": 34963
    },
    {
      "buffer": 4,
      "byteOffset": 0,
      "byteLength": 14592,
      "target": 34962,
      "byteStride": 32
    },
    {
      "buffer": 5,
      "byteOffset": 0,
      "byteLength": 1824,
      "target": 34963
    }
  ],
  "accessors": [
    {
      "bufferView": 0,
      "byteOffset": 0,
      "componentType": 5126,
      "count": 148,
      "max": [
        0.3033628761768341,
        0.07154589891433716,
        0.20802953839302063
      ],
      "min": [
        -0.05517563596367836,
        -0.07154428958892822,
        -0.2080295979976654
      ],
      "type": "VEC3"
    },
    {
      "bufferView": 0,
      "byteOffset": 12,
      "componentType": 5126,
      "count": 148,
      "max": [
        1,
        0.9656431078910828,
        1
      ],
      "min": [
        -0.9866968989372253,
        -0.9656432271003723,
        -1
      ],
      "type": "VEC3"
    },
    {
      "bufferView": 0,
      "byteOffset": 24,
      "componentType": 5126,
      "count": 148,
      "max": [
        0.874577522277832,
        0.969428300857544
      ],
      "min": [
        0.125,
        0
      ],
      "type": "VEC2"
    },
    {
      "bufferView": 1,
      "byteOffset": 0,
      "componentType": 5125,
      "normalized": false,
      "count": 330,
      "max": [
        147
      ],
      "min": [
        0
      ],
      "type": "SCALAR"
    },
    {
      "bufferView": 2,
      "byteOffset": 0,
      "componentType": 5126,
      "count": 12,
      "max": [
        0.29082807898521423,
        0.029210751876235008,
        0.19224539399147034
      ],
      "min": [
        -0.016839707270264626,
        -0.029204806312918663,
        -0.19224542379379272
      ],
      "type": "VEC3"
    },
    {
      "bufferView": 2,
      "byteOffset": 12,
      "componentType": 5126,
      "count": 12,
      "max": [
        1,
        0,
        1
      ],
      "min": [
        0,
        0,
        -1
      ],
      "type": "VEC3"
    },
    {
      "bufferView": 2,
      "byteOffset": 24,
      "componentType": 5126,
      "count": 12,
      "max": [
        0.875,
        0.5
      ],
      "min": [
        0.125,
        0.25
      ],
      "type": "VEC2"
    },
    {
      "bufferView": 3,
      "byteOffset": 0,
      "componentType": 5125,
      "normalized": false,
      "count": 18,
      "max": [
        11
      ],
      "min": [
        0
      ],
      "type": "SCALAR"
    },
    {
      "bufferView": 4,
      "byteOffset": 0,
      "componentType": 5126,
      "count": 230,
      "max": [
        0.022385254502296448,
        0.08595773577690125,
        0.13782888650894165
      ],
      "min": [
        -0.07241839915513992,
        -0.08600854873657227,
        -0.13782888650894165
      ],
      "type": "VEC3"
    },
    {
      "bufferView": 4,
      "byteOffset": 12,
      "componentType": 5126,
      "count": 230,
      "max": [
        1,
        1,
        1
      ],
      "min": [
        -0.9911504983901978,
        -1,
        -1
      ],
      "type": "VEC3"
    },
    {
      "bufferView": 4,
      "byteOffset": 24,
      "componentType": 5126,
      "count": 230,
      "max": [
        0.8745558857917786,
        0.9681763648986816
      ],
      "min": [
        0.125,
        0
      ],
      "type": "VEC2"
    },
    {
      "bufferView": 5,
      "byteOffset": 0,
      "componentType": 5125,
      "normalized": false,
      "count": 456,
      "max": [
        229
      ],
      "min": [
        0
      ],
      "type": "SCALAR"
    }
  ],
  "scene": 0,
  "scenes": [
    {
      "nodes": [
        0
      ],
      "name": "Scene"
    }
  ],
  "nodes": [
    {
      "name": "bookA",
      "matrix": [
        1,
        0,
        0,
        0,
        0,
        -1.3435885648505064e-7,
        0.9999999403953552,
        0,
        0,
        -0.9999999403953552,
        -1.3435885648505064e-7,
        0,
        -0.12999999523162842,
        0,
        0,
        1
      ],
      "mesh": 0
    }
  ],
  "meshes": [
    {
      "primitives": [
        {
          "attributes": {
            "POSITION": 0,
            "NORMAL": 1,
            "TEXCOORD_0": 2
          },
          "material": 0,
          "mode": 4,
          "indices": 3
        },
        {
          "attributes": {
            "POSITION": 4,
            "NORMAL": 5,
            "TEXCOORD_0": 6
          },
          "material": 1,
          "mode": 4,
          "indices": 7
        },
        {
          "attributes": {
            "POSITION": 8,
            "NORMAL": 9,
            "TEXCOORD_0": 10
          },
          "material": 2,
          "mode": 4,
          "indices": 11
        }
      ]
    }
  ],
  "materials": [
    {
      "pbrMetallicRoughness": {
        "baseColorFactor": [
          0.10196078431372549,
          0.11764705882352941,
          0.12941176470588237,
          1
        ],
        "metallicFactor": 0,
        "roughnessFactor": 0.5
      },
      "emissiveFactor": [
        0,
        0,
        0
      ],
      "alphaMode": "OPAQUE",
      "doubleSided": true
    },
    {
      "pbrMetallicRoughness": {
        "baseColorFactor": [
          0.8,
          0.8,
          0.8,
          1
        ],
        "metallicFactor": 0,
        "roughnessFactor": 0.5
      },
      "emissiveFactor": [
        0,
        0,
        0
      ],
      "alphaMode": "OPAQUE",
      "doubleSided": true
    },
    {
      "pbrMetallicRoughness": {
        "baseColorFactor": [
          0.4,
          0.47843137254901963,
          0.5176470588235295,
          1
        ],
        "metallicFactor": 0.20000000298023224,
        "roughnessFactor": 0.30000001192092896
      },
      "emissiveFactor": [
        0,
        0,
        0
      ],
      "alphaMode": "OPAQUE",
      "doubleSided": true
    }
  ]
}